<?xml version="1.0" encoding="UTF-8" standalone="no"?>
<!-- Created with Inkscape (http://www.inkscape.org/) -->

<svg
   width="97.253769mm"
   height="100.7569mm"
   viewBox="0 0 97.253769 100.7569"
   version="1.1"
   id="svg161048"
   xml:space="preserve"
   inkscape:version="1.2 (dc2aeda, 2022-05-15)"
   sodipodi:docname="bearingblock-left.svg"
   xmlns:inkscape="http://www.inkscape.org/namespaces/inkscape"
   xmlns:sodipodi="http://sodipodi.sourceforge.net/DTD/sodipodi-0.dtd"
   xmlns="http://www.w3.org/2000/svg"
   xmlns:svg="http://www.w3.org/2000/svg"><sodipodi:namedview
     id="namedview161050"
     pagecolor="#ffffff"
     bordercolor="#666666"
     borderopacity="1.0"
     inkscape:showpageshadow="2"
     inkscape:pageopacity="0.0"
     inkscape:pagecheckerboard="0"
     inkscape:deskcolor="#d1d1d1"
     inkscape:document-units="mm"
     showgrid="false"
     inkscape:zoom="3.4488437"
     inkscape:cx="259.79722"
     inkscape:cy="186.00437"
     inkscape:window-width="3840"
     inkscape:window-height="2506"
     inkscape:window-x="0"
     inkscape:window-y="35"
     inkscape:window-maximized="1"
     inkscape:current-layer="layer1" /><defs
     id="defs161045" /><g
     inkscape:label="Layer 1"
     inkscape:groupmode="layer"
     id="layer1"
     transform="translate(-45.786993,-58.127842)"><path
       id="path161758"
       style="fill:#808080;stroke:#000000;stroke-width:0.254;stroke-linecap:round;stroke-linejoin:round;stroke-miterlimit:10;stroke-dasharray:none;stroke-opacity:1"
       d="M 61.9125,58.254842 45.913993,83.2559 v 75.50185 h 96.999767 v -40.50244 l -23.60063,-8.82323 -0.9493,-0.40204 -0.89917,-0.44804 -0.87488,-0.50074 -0.82579,-0.57516 -0.80098,-0.62477 -0.75138,-0.67696 -0.69815,-0.74827 -0.64905,-0.77567 -0.59996,-0.82579 -0.52555,-0.85007 -0.47646,-0.89969 -0.39843,-0.92398 -0.35295,-0.94929 -0.2713,-0.977203 -0.20154,-0.998389 -0.15141,-1.002006 -0.0744,-0.997872 v -1.026811 l 0.0744,-0.998388 0.15141,-0.998389 0.20154,-1.002006 0.2713,-0.973584 0.35295,-0.952397 0.39843,-0.924491 0.47646,-0.874882 0.55035,-0.874882 0.57516,-0.825273 0.64905,-0.772562 0.69815,-0.726571 0.75138,-0.673861 0.80098,-0.624768 0.82579,-0.574642 0.87488,-0.526066 0.89917,-0.451135 0.9493,-0.374137 0.94878,-0.324528 12.92583,-3.824056 0.97358,-0.377755 0.9033,-0.472323 0.84646,-0.575158 0.75138,-0.702283 0.67386,-0.800468 0.55035,-0.850594 0.45166,-0.923975 0.32452,-0.998388 0.20103,-1.002006 0.0496,-1.023194 -0.0744,-1.026294 -0.20102,-1.023193 -0.32453,-0.977201 -0.47594,-0.923975 -0.55035,-0.850594 -0.67386,-0.77618 -0.77618,-0.698149 -0.85008,-0.575158 -0.92449,-0.451652 -0.97359,-0.349333 -1.002,-0.225826 -1.0232,-0.0739 -1.02629,0.04961 -9.12296,1.001489 -0.75137,0.649573 -0.80099,0.624251 -0.80046,0.599447 -0.82218,0.550354 -0.85007,0.550354 -0.87489,0.501261 -0.9033,0.448035 -0.89969,0.451652 -0.89917,0.398425 -0.94929,0.377238 -0.94878,0.324528 -0.9524,0.30024 -0.9741,0.250114 -0.97358,0.225826 -0.9772,0.197921 -0.99839,0.151412 -0.9772,0.123507 -0.99839,0.0739 -1.00149,0.02842 -1.0232,0.02481 -1.002,-0.05323 -0.99839,-0.04909 -1.002007,-0.123506 -0.973584,-0.127124 -0.998388,-0.197404 -0.977202,-0.201022 -0.973584,-0.25063 -0.948779,-0.299724 -0.952397,-0.324528 -0.949296,-0.349332 -0.899686,-0.402043 -0.923975,-0.423747 -0.874882,-0.451135 -0.874882,-0.497644 -0.850077,-0.525549 -0.850594,-0.550354 -0.800468,-0.575159 -0.800985,-0.624251 -0.77618,-0.652674 -0.747758,-0.67386 -0.702283,-0.698666 -0.698148,-0.72657 -0.673861,-0.747758 -0.624251,-0.77618 -0.603581,-0.800985 -0.575159,-0.800468 z m 16.002124,1.001489 a 1.5821238,1.5821236 0 0 1 1.581816,1.582333 1.5821238,1.5821236 0 0 1 -1.581816,1.582332 1.5821238,1.5821236 0 0 1 -1.582332,-1.582332 1.5821238,1.5821236 0 0 1 1.582332,-1.582333 z m 52.999346,8.923487 a 2.0765374,2.0765374 0 0 1 2.07688,2.076359 2.0765374,2.0765374 0 0 1 -2.07688,2.076359 2.0765374,2.0765374 0 0 1 -2.07636,-2.076359 2.0765374,2.0765374 0 0 1 2.07636,-2.076359 z m -8.9917,7.511686 a 0.98882741,0.98882741 0 0 1 0.98909,0.98857 0.98882741,0.98882741 0 0 1 -0.98909,0.989087 0.98882741,0.98882741 0 0 1 -0.98857,-0.989087 0.98882741,0.98882741 0 0 1 0.98857,-0.98857 z M 77.930644,86.847412 a 1.4832411,1.483241 0 0 1 1.483113,1.483114 1.4832411,1.483241 0 0 1 -1.483113,1.48363 1.4832411,1.483241 0 0 1 -1.483114,-1.48363 1.4832411,1.483241 0 0 1 1.483114,-1.483114 z m -0.01809,4.949052 a 3.4608958,3.4608955 0 0 1 3.461287,3.461287 3.4608958,3.4608955 0 0 1 -3.461287,3.460771 3.4608958,3.4608955 0 0 1 -3.460771,-3.460771 3.4608958,3.4608955 0 0 1 3.460771,-3.461287 z m -6.124174,5.481319 a 1.4832411,1.483241 0 0 1 1.483114,1.483114 1.4832411,1.483241 0 0 1 -1.483114,1.483113 1.4832411,1.483241 0 0 1 -1.483114,-1.483113 1.4832411,1.483241 0 0 1 1.483114,-1.483114 z m 12.250415,0 a 1.4832411,1.483241 0 0 1 1.483114,1.483114 1.4832411,1.483241 0 0 1 -1.483114,1.483113 1.4832411,1.483241 0 0 1 -1.483114,-1.483113 1.4832411,1.483241 0 0 1 1.483114,-1.483114 z M 109.91164,113.7574 h 8.00106 v 2.99826 h -8.00106 z m 29.01115,7.50962 a 0.98882741,0.98882741 0 0 1 0.98908,0.98857 0.98882741,0.98882741 0 0 1 -0.98908,0.98908 0.98882741,0.98882741 0 0 1 -0.98857,-0.98908 0.98882741,0.98882741 0 0 1 0.98857,-0.98857 z m -0.0114,6.01668 a 2.4720685,2.4720683 0 0 1 2.4722,2.4722 2.4720685,2.4720683 0 0 1 -2.4722,2.47169 2.4720685,2.4720683 0 0 1 -2.47169,-2.47169 2.4720685,2.4720683 0 0 1 2.47169,-2.4722 z m 0.0114,8.98343 a 0.98882741,0.98882741 0 0 1 0.98908,0.98857 0.98882741,0.98882741 0 0 1 -0.98908,0.98909 0.98882741,0.98882741 0 0 1 -0.98857,-0.98909 0.98882741,0.98882741 0 0 1 0.98857,-0.98857 z m -77.885172,11.03499 a 1.9776548,1.9776547 0 0 1 1.977657,1.97766 1.9776548,1.9776547 0 0 1 -1.977657,1.97765 1.9776548,1.9776547 0 0 1 -1.977657,-1.97765 1.9776548,1.9776547 0 0 1 1.977657,-1.97766 z m 33.249133,0 a 1.9776548,1.9776547 0 0 1 1.977657,1.97766 1.9776548,1.9776547 0 0 1 -1.977657,1.97765 1.9776548,1.9776547 0 0 1 -1.977657,-1.97765 1.9776548,1.9776547 0 0 1 1.977657,-1.97766 z m 33.249649,0 a 1.9776548,1.9776547 0 0 1 1.97766,1.97766 1.9776548,1.9776547 0 0 1 -1.97766,1.97765 1.9776548,1.9776547 0 0 1 -1.97766,-1.97765 1.9776548,1.9776547 0 0 1 1.97766,-1.97766 z m -58.358194,0.71934 a 1.2360344,1.2360344 0 0 1 1.236101,1.23558 1.2360344,1.2360344 0 0 1 -1.236101,1.2361 1.2360344,1.2360344 0 0 1 -1.235583,-1.2361 1.2360344,1.2360344 0 0 1 1.235583,-1.23558 z m 50.484254,0.0124 a 1.2360344,1.2360344 0 0 1 1.23559,1.2361 1.2360344,1.2360344 0 0 1 -1.23559,1.2361 1.2360344,1.2360344 0 0 1 -1.2361,-1.2361 1.2360344,1.2360344 0 0 1 1.2361,-1.2361 z" /></g><g
     inkscape:groupmode="layer"
     id="layer2"
     inkscape:label="Annotations"
     style="display:inline"
     transform="translate(-45.786993,-58.127842)" /></svg>
