<?xml version="1.0" encoding="UTF-8" standalone="no"?>
<!-- Created with Inkscape (http://www.inkscape.org/) -->

<svg
   width="97.264351mm"
   height="100.76389mm"
   viewBox="0 0 97.264351 100.76389"
   version="1.1"
   id="svg279119"
   xml:space="preserve"
   inkscape:version="1.2 (dc2aeda, 2022-05-15)"
   sodipodi:docname="bearingblock-right.svg"
   xmlns:inkscape="http://www.inkscape.org/namespaces/inkscape"
   xmlns:sodipodi="http://sodipodi.sourceforge.net/DTD/sodipodi-0.dtd"
   xmlns="http://www.w3.org/2000/svg"
   xmlns:svg="http://www.w3.org/2000/svg"><sodipodi:namedview
     id="namedview279121"
     pagecolor="#ffffff"
     bordercolor="#666666"
     borderopacity="1.0"
     inkscape:showpageshadow="2"
     inkscape:pageopacity="0.0"
     inkscape:pagecheckerboard="0"
     inkscape:deskcolor="#d1d1d1"
     inkscape:document-units="mm"
     showgrid="false"
     inkscape:zoom="2.5519225"
     inkscape:cx="625.41084"
     inkscape:cy="497.46808"
     inkscape:window-width="3840"
     inkscape:window-height="2506"
     inkscape:window-x="0"
     inkscape:window-y="35"
     inkscape:window-maximized="1"
     inkscape:current-layer="layer1" /><defs
     id="defs279116" /><g
     inkscape:label="Layer 1"
     inkscape:groupmode="layer"
     id="layer1"
     transform="translate(-30.433099,68.159528)"><path
       id="path318087"
       style="fill:#999999;stroke:#000000;stroke-width:0.264583;stroke-linecap:round;stroke-linejoin:round;stroke-miterlimit:10;stroke-dasharray:none;stroke-opacity:1"
       d="m 46.5639,-68.027232 -15.99851,24.997958 v 75.501339 h 96.99977 V -8.0267597 l -23.60063,-8.8263343 -0.92449,-0.374138 -0.92397,-0.451652 -0.87489,-0.525549 -0.82579,-0.546736 -0.80098,-0.652674 -0.74776,-0.673861 -0.70176,-0.72657 -0.62477,-0.772563 -0.59945,-0.825789 -0.52555,-0.874882 -0.47284,-0.874882 -0.42684,-0.923975 -0.32453,-0.952913 -0.29973,-0.973584 -0.20153,-1.002006 -0.12299,-0.997872 -0.07804,-0.998389 v -1.026811 l 0.07804,-0.998388 0.12299,-1.002006 0.22582,-0.998389 0.27544,-0.977201 0.32453,-0.94878 0.42684,-0.924491 0.47284,-0.89917 0.52555,-0.850594 0.59945,-0.825273 0.62477,-0.77618 0.70176,-0.722953 0.74776,-0.702283 0.80098,-0.624251 0.82579,-0.575159 0.87489,-0.500744 0.92397,-0.448035 0.92449,-0.402559 0.9524,-0.324528 12.92221,-3.824056 0.9772,-0.349333 0.92449,-0.47594 0.82527,-0.599963 0.77618,-0.698149 0.64906,-0.77618 0.57516,-0.874882 0.44803,-0.924491 0.29973,-0.977202 0.20102,-0.998388 0.0496,-1.051099 -0.0744,-1.023193 -0.20102,-1.002006 -0.32453,-0.973584 -0.44803,-0.923975 -0.57516,-0.850594 -0.67696,-0.800468 -0.77256,-0.673861 -0.8506,-0.575158 -0.90279,-0.476457 -0.97358,-0.348816 -1.02319,-0.201021 -1.02681,-0.09922 -1.0263,0.04961 -9.12296,1.023194 -0.75137,0.652673 -0.77256,0.624251 -0.82579,0.575159 -0.82528,0.574642 -0.85007,0.526066 -0.87488,0.497127 -0.87489,0.476457 -0.89968,0.42323 -0.92449,0.402043 -0.9276,0.374137 -0.94878,0.324528 -0.94929,0.299723 -0.9772,0.275436 -0.97359,0.225826 -0.99839,0.176216 -0.9772,0.1726 -0.99839,0.102319 -1.002,0.07441 -0.99787,0.04909 h -1.00201 l -0.99839,-0.02429 -1.002,-0.07441 -0.99839,-0.10232 -1.00201,-0.148311 -0.97358,-0.176217 -0.97359,-0.225826 -0.9772,-0.247013 -0.97358,-0.274919 -0.9493,-0.328145 -0.92759,-0.349333 -0.92449,-0.398425 -0.89917,-0.426847 -0.89969,-0.448035 -0.87488,-0.501261 -0.85008,-0.52555 -0.82579,-0.550354 -0.82527,-0.599446 -0.79737,-0.599964 -0.75137,-0.649056 -0.75138,-0.67386 -0.72347,-0.701766 -0.70176,-0.72347 -0.64906,-0.751376 -0.64906,-0.77618 -0.59996,-0.797367 -0.57516,-0.825273 z m 69.00147,9.913607 a 2.0862586,2.0862586 0 0 1 2.08618,2.086178 2.0862586,2.0862586 0 0 1 -2.08618,2.086177 2.0862586,2.0862586 0 0 1 -2.08617,-2.086177 2.0862586,2.0862586 0 0 1 2.08617,-2.086178 z m -8.99945,7.590751 a 0.99345648,0.99345648 0 0 1 0.99374,0.993738 0.99345648,0.99345648 0 0 1 -0.99374,0.993221 0.99345648,0.99345648 0 0 1 -0.99322,-0.993221 0.99345648,0.99345648 0 0 1 0.99322,-0.993738 z m -44.00144,2.922819 a 1.5895303,1.5895303 0 0 1 1.58956,1.589567 1.5895303,1.5895303 0 0 1 -1.58956,1.589568 1.5895303,1.5895303 0 0 1 -1.58957,-1.589568 1.5895303,1.5895303 0 0 1 1.58957,-1.589567 z m -12.97182,22.520073 a 1.5895303,1.5895303 0 0 1 1.58956,1.589567 1.5895303,1.5895303 0 0 1 -1.58956,1.589567 1.5895303,1.5895303 0 0 1 -1.58957,-1.589567 1.5895303,1.5895303 0 0 1 1.58957,-1.589567 z m 25.97102,0 a 1.5895303,1.5895303 0 0 1 1.58957,1.589567 1.5895303,1.5895303 0 0 1 -1.58957,1.589567 1.5895303,1.5895303 0 0 1 -1.58905,-1.589567 1.5895303,1.5895303 0 0 1 1.58905,-1.589567 z m 48.00276,26.06817634 a 2.4836414,2.4836414 0 0 1 2.48357,2.48356896 2.4836414,2.4836414 0 0 1 -2.48357,2.484087 2.4836414,2.4836414 0 0 1 -2.48357,-2.484087 2.4836414,2.4836414 0 0 1 2.48357,-2.48356896 z m -0.002,8.98859896 a 0.99345648,0.99345648 0 0 1 0.99322,0.9937377 0.99345648,0.99345648 0 0 1 -0.99322,0.993221 0.99345648,0.99345648 0 0 1 -0.99374,-0.993221 0.99345648,0.99345648 0 0 1 0.99374,-0.9937377 z M 45.81408,20.984906 a 1.9869131,1.9869131 0 0 1 1.98696,1.986959 1.9869131,1.9869131 0 0 1 -1.98696,1.98696 1.9869131,1.9869131 0 0 1 -1.98696,-1.98696 1.9869131,1.9869131 0 0 1 1.98696,-1.986959 z m 33.2512,0 a 1.9869131,1.9869131 0 0 1 1.98696,1.986959 1.9869131,1.9869131 0 0 1 -1.98696,1.98696 1.9869131,1.9869131 0 0 1 -1.98696,-1.98696 1.9869131,1.9869131 0 0 1 1.98696,-1.986959 z m 33.11684,0 a 1.9869131,1.9869131 0 0 1 1.98696,1.986959 1.9869131,1.9869131 0 0 1 -1.98696,1.98696 1.9869131,1.9869131 0 0 1 -1.98644,-1.98696 1.9869131,1.9869131 0 0 1 1.98644,-1.986959 z m -58.36698,0.745179 a 1.2418206,1.2418206 0 0 1 1.24178,1.24178 1.2418206,1.2418206 0 0 1 -1.24178,1.24178 1.2418206,1.2418206 0 0 1 -1.24179,-1.24178 1.2418206,1.2418206 0 0 1 1.24179,-1.24178 z m 50.50028,0 a 1.2418206,1.2418206 0 0 1 1.24178,1.24178 1.2418206,1.2418206 0 0 1 -1.24178,1.24178 1.2418206,1.2418206 0 0 1 -1.24179,-1.24178 1.2418206,1.2418206 0 0 1 1.24179,-1.24178 z" /></g></svg>
